<?xml version="1.0" encoding="utf-8"?>
<!-- Generator: Adobe Illustrator 27.7.0, SVG Export Plug-In . SVG Version: 6.00 Build 0)  -->
<svg version="1.1" id="Capa_1" xmlns="http://www.w3.org/2000/svg" xmlns:xlink="http://www.w3.org/1999/xlink" x="0px" y="0px"
	 viewBox="0 0 946 511" style="enable-background:new 0 0 946 511;" xml:space="preserve">
<style type="text/css">
	.st0{fill:#FFFFFF;stroke:#000000;stroke-miterlimit:10;}
</style>
<rect id="satnd16" x="57.5" y="47" class="st0" width="178" height="72"/>
<rect id="stand15" x="278" y="47" class="st0" width="178" height="72"/>
<rect id="stand14" x="498.5" y="47" class="st0" width="178" height="72"/>
<rect id="stand13" x="710.5" y="47" class="st0" width="178" height="72"/>
<rect id="stand12" x="57.5" y="156" class="st0" width="178" height="72"/>
<rect id="stand11" x="278" y="156" class="st0" width="178" height="72"/>
<rect id="stand10" x="498.5" y="156" class="st0" width="178" height="72"/>
<rect id="stand09" x="710.5" y="156" class="st0" width="178" height="72"/>
<rect id="stand08" x="57.5" y="279.5" class="st0" width="178" height="72"/>
<rect id="stand07" x="278" y="279.5" class="st0" width="178" height="72"/>
<rect id="stand06" x="498.5" y="279.5" class="st0" width="178" height="72"/>
<rect id="stand05" x="710.5" y="279.5" class="st0" width="178" height="72"/>
<rect id="stand04" x="57.5" y="392" class="st0" width="178" height="72"/>
<rect id="stand03" x="278" y="392" class="st0" width="178" height="72"/>
<rect id="stand02" x="710.5" y="392" class="st0" width="178" height="72"/>
<rect id="stand01" x="498.5" y="392" class="st0" width="178" height="72"/>
</svg>
