<?xml version="1.0" encoding="utf-8"?>
<!-- Generator: Adobe Illustrator 27.7.0, SVG Export Plug-In . SVG Version: 6.00 Build 0)  -->
<svg version="1.1" id="Capa_1" xmlns="http://www.w3.org/2000/svg" xmlns:xlink="http://www.w3.org/1999/xlink" x="0px" y="0px"
	 viewBox="0 0 946 511" style="enable-background:new 0 0 946 511;" xml:space="preserve">
<style type="text/css">
	.st0{fill:#FFFFFF;stroke:#000000;stroke-miterlimit:10;}
	.st1{fill:#E62044;stroke:#000000;stroke-miterlimit:10;}
</style>
<rect id="stand14" x="498.5" y="47" class="st0" width="178" height="72"/>
<rect id="stand13" x="710.5" y="47" class="st0" width="178" height="72"/>
<polygon id="stand12" class="st0" points="235.5,223 57.5,223 57.5,192 235.5,151 "/>
<path id="stand11" class="st0" d="M420,228H314c-19.88,0-36-16.12-36-36v0c0-19.88,16.12-36,36-36h106c19.88,0,36,16.12,36,36v0
	C456,211.88,439.88,228,420,228z"/>
<polygon id="stand10" class="st0" points="676.5,351.5 498.5,351.5 498.5,156 888.5,156 888.5,223 676.5,219 "/>
<rect id="stand08" x="57.5" y="279.5" class="st0" width="178" height="72"/>
<rect id="stand07" x="278" y="279.5" class="st0" width="178" height="72"/>
<rect id="stand05" x="710.5" y="279.5" class="st0" width="178" height="72"/>
<rect id="stand04" x="57.5" y="392" class="st0" width="178" height="72"/>
<rect id="stand03" x="278" y="392" class="st0" width="178" height="72"/>
<rect id="stand02" x="710.5" y="392" class="st0" width="178" height="72"/>
<rect id="stand01" x="498.5" y="392" class="st0" width="178" height="72"/>
<rect id="stand16" x="57.5" y="47" class="st0" width="188.5" height="72"/>
<polygon class="st1" points="278,64 278,115 456,115 456,47 295,47 "/>
</svg>
